<svg width="15" height="15" viewBox="0 0 15 15" fill="none" xmlns="http://www.w3.org/2000/svg">
<path d="M2.3188 6.68333C2.3188 7.62778 2.55503 8.50556 3.02747 9.31667C3.49991 10.1278 4.14147 10.7778 4.95214 11.2667C5.10769 11.3667 5.21614 11.5029 5.27747 11.6753C5.3388 11.8478 5.3248 12.0116 5.23547 12.1667C5.14658 12.3333 5.01058 12.4418 4.82747 12.492C4.64436 12.5422 4.46925 12.5227 4.30214 12.4333C3.2688 11.8333 2.45769 11.0222 1.8688 10C1.27991 8.97778 0.98547 7.87222 0.98547 6.68333C0.98547 6.39444 1.00503 6.11111 1.04414 5.83333C1.08325 5.55556 1.13591 5.27778 1.20214 5L0.98547 5.13333C0.829915 5.23333 0.663248 5.25844 0.48547 5.20867C0.307692 5.15889 0.174359 5.056 0.0854701 4.9C-0.0034188 4.744 -0.0229744 4.57444 0.0268034 4.39133C0.0765812 4.20822 0.17947 4.07222 0.33547 3.98333L2.35214 2.81667C2.50769 2.72778 2.67725 2.70844 2.8608 2.75867C3.04436 2.80889 3.18036 2.91156 3.2688 3.06667L4.43547 5.06667C4.52436 5.22222 4.54391 5.39178 4.49414 5.57533C4.44436 5.75889 4.34147 5.89489 4.18547 5.98333C4.02947 6.07178 3.86014 6.09133 3.67747 6.042C3.4948 5.99267 3.35858 5.88978 3.2688 5.73333L2.70214 4.75C2.57991 5.06111 2.48547 5.37778 2.4188 5.7C2.35214 6.02222 2.3188 6.35 2.3188 6.68333ZM7.65214 1.33333C7.19658 1.33333 6.74658 1.39178 6.30214 1.50867C5.85769 1.62556 5.43547 1.79489 5.03547 2.01667C4.8688 2.10556 4.69391 2.13622 4.5108 2.10867C4.32769 2.08111 4.19147 1.98933 4.10214 1.83333C4.00214 1.65556 3.97991 1.47511 4.03547 1.292C4.09103 1.10889 4.20769 0.967111 4.38547 0.866667C4.88547 0.577778 5.41058 0.361111 5.9608 0.216667C6.51103 0.0722223 7.0748 0 7.65214 0C8.52991 0 9.37169 0.164 10.1775 0.492C10.9832 0.82 11.7026 1.29489 12.3355 1.91667V1.66667C12.3355 1.47778 12.3995 1.31956 12.5275 1.192C12.6555 1.06444 12.8137 1.00044 13.0021 1C13.1906 0.999556 13.349 1.06356 13.4775 1.192C13.6059 1.32044 13.6697 1.47867 13.6688 1.66667V4C13.6688 4.18889 13.605 4.34733 13.4775 4.47533C13.3499 4.60333 13.1915 4.66711 13.0021 4.66667H10.6688C10.4799 4.66667 10.3217 4.60267 10.1941 4.47467C10.0666 4.34667 10.0026 4.18844 10.0021 4C10.0017 3.81156 10.0657 3.65333 10.1941 3.52533C10.3226 3.39733 10.4808 3.33333 10.6688 3.33333H11.8188C11.3077 2.7 10.691 2.20844 9.9688 1.85867C9.24658 1.50889 8.47436 1.33378 7.65214 1.33333ZM11.6855 10.1833C12.1077 9.69444 12.4299 9.15556 12.6521 8.56667C12.8744 7.97778 12.9855 7.36111 12.9855 6.71667C12.9855 6.52778 13.0495 6.36111 13.1775 6.21667C13.3055 6.07222 13.4637 6 13.6521 6C13.8406 6 13.999 6.07222 14.1275 6.21667C14.2559 6.36111 14.3197 6.52778 14.3188 6.71667C14.3188 7.43889 14.2048 8.136 13.9768 8.808C13.7488 9.48 13.4184 10.1051 12.9855 10.6833C12.5526 11.2616 12.0388 11.756 11.4441 12.1667C10.8495 12.5773 10.2021 12.8829 9.50214 13.0833L9.6688 13.1833C9.82436 13.2722 9.92436 13.4084 9.9688 13.592C10.0132 13.7756 9.99103 13.9449 9.90214 14.1C9.81325 14.2551 9.67991 14.3551 9.50214 14.4C9.32436 14.4449 9.15769 14.4227 9.00214 14.3333L6.9688 13.1667C6.81325 13.0778 6.71058 12.9416 6.6608 12.758C6.61103 12.5744 6.63036 12.4051 6.7188 12.25L7.88547 10.2333C7.97436 10.0778 8.10769 9.97778 8.28547 9.93333C8.46325 9.88889 8.62991 9.91111 8.78547 10C8.94103 10.0889 9.04391 10.2251 9.09414 10.4087C9.14436 10.5922 9.1248 10.7616 9.03547 10.9167L8.4188 11.9667C9.05214 11.8778 9.64947 11.6804 10.2108 11.3747C10.7721 11.0689 11.2637 10.6718 11.6855 10.1833Z" fill="#F36F56"/>
</svg>
