<svg width="16" height="16" viewBox="0 0 16 16" fill="none" xmlns="http://www.w3.org/2000/svg">
<path d="M8.3215 1.0853C8.28181 1.03895 8.23255 1.00174 8.17712 0.976224C8.12168 0.950711 8.06138 0.9375 8.00036 0.9375C7.93933 0.9375 7.87903 0.950711 7.8236 0.976224C7.76816 1.00174 7.71891 1.03895 7.67922 1.0853C6.56377 2.38995 2.92676 6.90036 2.92676 10.2414C2.92676 13.3549 4.88707 15.3148 8.00018 15.3148C11.1133 15.3148 13.0736 13.3549 13.0736 10.2414C13.0736 6.90036 9.43659 2.38995 8.3215 1.0853ZM8.5639 13.4828C8.49618 13.4829 8.42942 13.4668 8.36923 13.4358C8.30904 13.4047 8.25719 13.3597 8.21803 13.3045C8.17888 13.2492 8.15356 13.1854 8.14422 13.1183C8.13488 13.0512 8.14179 12.9829 8.16436 12.9191C8.19319 12.8358 8.24757 12.7637 8.31974 12.7131C8.39192 12.6625 8.47822 12.6359 8.56636 12.6372C9.12598 12.636 9.66234 12.4132 10.0581 12.0174C10.4538 11.6217 10.6766 11.0854 10.6778 10.5257C10.6765 10.4376 10.7031 10.3513 10.7537 10.2791C10.8043 10.207 10.8764 10.1526 10.9597 10.1237C11.0235 10.1012 11.0919 10.0943 11.1589 10.1036C11.226 10.1129 11.2898 10.1383 11.3451 10.1774C11.4003 10.2166 11.4454 10.2684 11.4764 10.3286C11.5074 10.3888 11.5235 10.4556 11.5234 10.5233C11.5226 11.3079 11.2105 12.0602 10.6556 12.615C10.1008 13.1699 9.34855 13.4819 8.5639 13.4828Z" fill="#7E19DF"/>
</svg>
