<svg width="16" height="16" viewBox="0 0 16 16" fill="none" xmlns="http://www.w3.org/2000/svg">
<g clip-path="url(#clip0_75_2029)">
<path d="M7.90538 7.27441C7.49657 10.5664 5.40858 11.152 5.40858 13.4408C5.40858 14.8536 6.59497 16 7.99977 16C9.40458 16 10.5902 14.8528 10.5902 13.4408C10.5902 11.152 8.50217 10.5664 8.09337 7.27441C8.08057 7.17601 7.91818 7.17601 7.90538 7.27441ZM3.10617 0.0744104C2.69737 3.36641 0.609375 3.95121 0.609375 6.24081C0.609375 7.65281 1.79497 8.80001 3.19977 8.80001C4.60457 8.80001 5.79017 7.65281 5.79017 6.24081C5.79017 3.95201 3.70218 3.36641 3.29338 0.0744104C3.28138 -0.0239896 3.11817 -0.0239896 3.10617 0.0744104ZM12.7062 0.0744104C12.2974 3.36641 10.2094 3.95201 10.2094 6.24081C10.2094 7.65281 11.395 8.80001 12.7998 8.80001C14.2046 8.80001 15.3902 7.65281 15.3902 6.24081C15.3902 3.95201 13.3022 3.36641 12.8934 0.0744104C12.8806 -0.0239896 12.7182 -0.0239896 12.7062 0.0744104Z" fill="#0D34F9"/>
</g>
<defs>
<clipPath id="clip0_75_2029">
<rect width="16" height="16" fill="white"/>
</clipPath>
</defs>
</svg>
