<svg width="15" height="16" viewBox="0 0 15 16" fill="none" xmlns="http://www.w3.org/2000/svg">
<path d="M1.99823 1.33331C3.33244 2.44551 3.99951 3.55715 3.99951 4.66818C3.99951 6.33475 2.66489 7.08118 1.99823 7.99998C1.33156 8.91878 1 9.97701 1 11.3344C1 12.2393 1.33274 13.3501 1.99823 14.6666" stroke="#FB3179" stroke-width="2" stroke-linecap="square"/>
<path d="M12.6663 1.33331C11.3321 2.44551 10.665 3.55715 10.665 4.66818C10.665 6.33475 11.9997 7.08118 12.6663 7.99998C13.333 8.91878 13.6645 9.97701 13.6645 11.3344C13.6645 12.2393 13.3318 13.3501 12.6663 14.6666" stroke="#FB3179" stroke-width="2" stroke-linecap="square"/>
<path d="M4 9.72749C4.84053 9.64695 5.53843 9.76709 6.0938 10.0879C6.9268 10.5692 7.32927 11.1199 7.33203 11.6524C7.3339 12.0074 7.3339 13.0122 7.33203 14.6667" stroke="#FB3179" stroke-width="2" stroke-linecap="square"/>
<path d="M10.666 9.72749C9.82552 9.64695 9.12759 9.76709 8.57225 10.0879C7.73922 10.5692 7.33675 11.1199 7.33398 11.6524" stroke="#FB3179" stroke-width="2" stroke-linecap="square"/>
</svg>
